<svg xmlns="http://www.w3.org/2000/svg" width="25" height="25" viewBox="0 0 25 25" fill="none">
  <g clip-path="url(#clip0_2287_380)">
    <path d="M24.3718 6.24995C24.0359 5.69421 23.3126 5.66886 22.5892 5.64362C22.2017 5.61837 21.8142 5.61837 21.5043 5.54255C20.3676 5.23943 17.3451 3.29412 16.5442 2.30885C16.4667 2.20778 16.3892 2.13204 16.3117 2.00573C15.9758 1.60154 15.5883 1.07103 14.9425 0.818402C14.2191 0.515285 13.3925 0.464695 12.8242 0.439453C12.3333 0.439453 11.9458 0.79316 11.8942 1.27318C11.8166 2.10691 11.5325 3.06685 10.9384 3.29424C10.2667 3.54688 9.82749 3.92582 9.54335 4.17846C9.18165 4.48157 9.0783 4.5574 8.81996 4.53216C8.74243 4.50692 8.53582 4.30477 8.40665 4.17846C8.22585 4.00165 8.04496 3.82475 7.81243 3.69843C7.42493 3.49629 6.93407 3.49629 6.33996 3.72368C5.92665 3.87524 5.66831 4.30478 5.74575 4.73421C5.79738 5.06267 5.90073 5.61842 6.05571 6.17417C5.56485 6.14893 5.04818 6.04786 4.73822 5.71939C4.16993 5.11305 3.00742 5.1383 1.25069 5.79522C0.785646 5.97202 0.475687 6.4268 0.501499 6.93206C0.579034 7.99308 0.992357 8.70049 1.71563 8.95312C4.35065 9.8879 5.79733 13.4752 5.79733 13.4752C6.18483 14.89 5.84896 17.29 4.76399 20.5995C4.58319 21.1047 4.78981 21.6605 5.25485 21.989C6.70151 22.9995 8.43237 23.2521 9.62072 23.2774C9.93068 23.2774 10.2407 23.4037 10.4473 23.5805C11.274 24.2879 12.1782 24.4395 13.134 24.4395C13.3666 24.4395 13.5991 24.4395 13.8574 24.4142C14.1416 24.389 14.4257 24.2626 14.6066 24.0605C14.7874 23.8584 14.8649 23.5552 14.8391 23.3026C14.7358 22.3679 15.1233 22.1153 15.2525 22.0394C16.0016 21.5594 17.6808 21.8373 18.74 22.3931C20.3416 23.2521 21.0133 22.8226 21.84 22.09C22.0467 21.9132 22.2275 21.7363 22.4858 21.5595C23.545 20.8269 23.6225 20.17 23.5192 19.7659C23.39 19.2858 22.9509 18.9575 22.305 18.8564C22.0983 18.6038 22.1501 17.4922 22.3309 17.189C22.8217 16.5575 22.6667 15.6985 22.3567 14.3596C22.0983 13.2732 21.6075 12.9448 21.0908 12.8942C21.4783 12.3637 22.15 11.7322 22.7184 11.4543C23.4676 11.1006 23.5967 10.2922 23.7259 9.5343C23.8293 8.97855 23.9326 8.32162 24.2426 7.69004C24.3458 7.46265 24.6816 6.80574 24.3717 6.24999L24.3718 6.24995ZM23.1575 7.13417C22.7442 7.94255 22.6151 8.70045 22.5117 9.33207C22.4342 9.83734 22.3567 10.2921 22.1758 10.3678C21.3492 10.772 19.4633 12.3637 19.5666 13.6268C19.5666 13.8036 19.67 13.9553 19.7992 14.0562C19.9283 14.1573 20.1091 14.2078 20.2642 14.1826C20.3934 14.1573 20.4967 14.1321 20.6001 14.1067C20.7292 14.0815 20.91 14.0309 20.9618 14.0309C20.9618 14.0309 21.0651 14.132 21.1943 14.5867C21.4268 15.5467 21.5302 16.2288 21.3751 16.4056C20.9876 16.8856 20.8068 18.3508 21.1684 19.1845C21.4267 19.7909 21.8659 19.9424 22.1242 19.9677C22.2275 19.9929 22.2792 19.9929 22.3309 20.0182C22.2793 20.094 22.1501 20.2708 21.7884 20.5234C21.4785 20.7256 21.2459 20.9529 21.0392 21.1298C20.4192 21.6855 20.29 21.7866 19.3342 21.2813C18.2233 20.675 15.95 20.0686 14.5809 20.9782C14.09 21.3067 13.5475 21.9383 13.6251 23.1761C12.5142 23.2266 11.8683 23.1256 11.2742 22.6204C10.8351 22.2414 10.2667 22.0393 9.67256 22.014C8.66504 21.9888 7.19255 21.7866 5.95254 20.9024C7.14086 17.315 7.47674 14.7634 6.98588 13.0455C6.88244 12.9447 5.30661 8.95311 2.12917 7.84153C1.92247 7.7657 1.76748 7.41209 1.74167 6.90683C3.05916 6.42681 3.73081 6.45205 3.83416 6.52788C4.66079 7.43734 6.05585 7.38685 6.90835 7.36161C7.11506 7.36161 7.29586 7.26054 7.39921 7.08373C7.50256 6.90693 7.52838 6.73003 7.45085 6.52798C7.21832 5.92165 7.06334 5.18899 6.9858 4.75956C7.14078 4.73431 7.21832 4.70906 7.21832 4.73431C7.29586 4.7848 7.42503 4.91112 7.52828 5.01219C7.81243 5.29006 8.17412 5.64377 8.66498 5.69425C9.4658 5.77007 9.93084 5.39113 10.3183 5.06267C10.6025 4.83528 10.8866 4.58265 11.3775 4.3806C12.5658 3.92582 12.9275 2.53635 13.0567 1.60165C13.4442 1.62689 13.9867 1.67747 14.4517 1.87952C14.7876 2.03108 15.0717 2.38479 15.3301 2.71325C15.4334 2.83957 15.5109 2.94064 15.5884 3.04172C16.5701 4.2038 19.7993 6.30067 21.1685 6.65436C21.6335 6.78068 22.0984 6.78068 22.5377 6.80592C22.7702 6.80592 23.0802 6.83117 23.2611 6.85642C23.2352 6.95732 23.2093 7.03306 23.1576 7.13412L23.1575 7.13417Z" fill="#393939" stroke="white" stroke-width="0.2"/>
  </g>
  <defs>
    <clipPath id="clip0_2287_380">
      <rect width="24" height="24" fill="white" transform="matrix(1 0 0 -1 0.5 24.4395)"/>
    </clipPath>
  </defs>
</svg>